<svg width="30" height="30" viewBox="0 0 30 30" fill="none" xmlns="http://www.w3.org/2000/svg">
<g clip-path="url(#clip0_206_1210)">
<path opacity="0.2" fill-rule="evenodd" clip-rule="evenodd" d="M7.62591 10.8846H5.84798C5.57986 10.8846 5.32263 10.7703 5.13247 10.5665C4.94231 10.3627 4.83469 10.086 4.8331 9.79697V5.38882L7.62403 7.79836V10.8846H7.62591ZM28.4995 27.3956C28.4995 27.6594 28.4022 27.9125 28.2292 28.099C28.0561 28.2856 27.8214 28.3904 27.5767 28.3904C27.3319 28.3904 27.0972 28.2856 26.9242 28.099C26.7511 27.9125 26.6539 27.6594 26.6539 27.3956V21.4244C26.6539 21.1606 26.7511 20.9075 26.9242 20.7209C27.0972 20.5344 27.3319 20.4295 27.5767 20.4295C27.8214 20.4295 28.0561 20.5344 28.2292 20.7209C28.4022 20.9075 28.4995 21.1606 28.4995 21.4244V27.3956Z" fill="#3F4662"/>
<path fill-rule="evenodd" clip-rule="evenodd" d="M27.585 18.8157C26.9437 18.8155 26.3285 19.0893 25.8742 19.5772C25.4199 20.0651 25.1636 20.7272 25.1613 21.4185V23.6023H23.7509C23.2467 23.6027 22.7628 23.3874 22.4056 23.0037C22.0483 22.6199 21.8468 22.0992 21.8452 21.5555V14.8189H22.597C24.4197 14.8189 26.1678 14.0382 27.4567 12.6487C28.7456 11.2592 29.4696 9.37461 29.4696 7.40953C29.4696 5.44445 28.7456 3.55986 27.4567 2.17034C26.1678 0.780824 24.4197 0.00020262 22.597 0.00020262C22.4974 -0.00220468 22.3984 0.0168596 22.3058 0.0562737C22.2131 0.0956878 22.1287 0.154653 22.0575 0.229718C21.9863 0.304783 21.9297 0.394428 21.8911 0.493391C21.8525 0.592354 21.8326 0.698643 21.8326 0.806012C21.8326 0.91338 21.8525 1.01967 21.8911 1.11863C21.9297 1.2176 21.9863 1.30724 22.0575 1.38231C22.1287 1.45737 22.2131 1.51634 22.3058 1.55575C22.3984 1.59516 22.4974 1.61423 22.597 1.61182C23.3032 1.61182 24.0025 1.76178 24.655 2.05314C25.3074 2.3445 25.9003 2.77157 26.3996 3.30993C26.899 3.8483 27.2951 4.48743 27.5654 5.19084C27.8356 5.89425 27.9747 6.64816 27.9747 7.40953C27.9747 8.1709 27.8356 8.9248 27.5654 9.62821C27.2951 10.3316 26.899 10.9708 26.3996 11.5091C25.9003 12.0475 25.3074 12.4745 24.655 12.7659C24.0025 13.0573 23.3032 13.2072 22.597 13.2072H9.13661V7.40547C9.13731 7.28606 9.11264 7.16806 9.06449 7.06051C9.01634 6.95297 8.94599 6.85874 8.85883 6.78506L4.62563 3.127L4.51286 3.03015L2.87702 1.61182H17.0204C17.1199 1.61423 17.219 1.59516 17.3116 1.55575C17.4042 1.51634 17.4886 1.45737 17.5598 1.38231C17.631 1.30724 17.6876 1.2176 17.7262 1.11863C17.7649 1.01967 17.7848 0.91338 17.7848 0.806012C17.7848 0.698643 17.7649 0.592354 17.7262 0.493391C17.6876 0.394428 17.631 0.304783 17.5598 0.229718C17.4886 0.154653 17.4042 0.0956878 17.3116 0.0562737C17.219 0.0168596 17.1199 -0.00220468 17.0204 0.00020262H0.744636C0.590573 0.00177884 0.44068 0.0543447 0.315246 0.150793C0.189811 0.247242 0.0948901 0.382907 0.0433361 0.539433C-0.00821792 0.695958 -0.0139183 0.865785 0.0270071 1.02592C0.0679325 1.18605 0.153509 1.32876 0.272149 1.43473L3.34086 4.08579V9.79109C3.34345 10.508 3.6094 11.1945 4.0805 11.7004C4.5516 12.2063 5.18945 12.4904 5.85439 12.4904H7.63232V14.0132C7.63351 14.2274 7.71324 14.4323 7.85409 14.5832C7.99495 14.7341 8.18548 14.8189 8.38408 14.8189H20.3443V21.5555C20.3479 22.527 20.7084 23.4575 21.3468 24.1432C21.9853 24.8288 22.8498 25.2139 23.7509 25.214H25.1613V27.3897C25.1692 28.077 25.428 28.7332 25.8817 29.2162C26.3353 29.6992 26.9472 29.9701 27.5848 29.9701C28.2223 29.9701 28.8342 29.6992 29.2879 29.2162C29.7415 28.7332 30.0003 28.077 30.0083 27.3897V21.4185C30.0061 20.7273 29.7498 20.0651 29.2955 19.5772C28.8413 19.0893 28.2262 18.8155 27.585 18.8157ZM7.6342 10.8788H5.85627C5.58815 10.8788 5.33092 10.7644 5.14076 10.5606C4.9506 10.3568 4.84298 10.0802 4.84139 9.79109V5.38294L7.63232 7.79248V10.8788H7.6342ZM28.5077 27.3897C28.5077 27.6535 28.4105 27.9066 28.2375 28.0931C28.0644 28.2797 27.8297 28.3845 27.585 28.3845C27.3402 28.3845 27.1055 28.2797 26.9324 28.0931C26.7594 27.9066 26.6622 27.6535 26.6622 27.3897V21.4185C26.6622 21.1547 26.7594 20.9016 26.9324 20.7151C27.1055 20.5285 27.3402 20.4237 27.585 20.4237C27.8297 20.4237 28.0644 20.5285 28.2375 20.7151C28.4105 20.9016 28.5077 21.1547 28.5077 21.4185V27.3897Z" fill="#3F4662"/>
<path fill-rule="evenodd" clip-rule="evenodd" d="M12.9642 11.5379C12.5156 11.536 12.0776 11.3908 11.7055 11.1207C11.3334 10.8506 11.0439 10.4677 10.8735 10.0203C10.703 9.57299 10.6594 9.08123 10.748 8.60714C10.8367 8.13306 11.0536 7.69792 11.3715 7.35666C11.6893 7.0154 12.0938 6.78333 12.5339 6.68973C12.974 6.59614 13.43 6.64522 13.8442 6.83079C14.2585 7.01636 14.6125 7.33008 14.8614 7.73237C15.1104 8.13465 15.2433 8.60745 15.2432 9.09107C15.2413 9.74113 15.0003 10.3638 14.5731 10.8225C14.1458 11.2813 13.5672 11.5385 12.9642 11.5379ZM12.9642 8.25547C12.8111 8.25619 12.6616 8.30581 12.5345 8.39806C12.4075 8.49031 12.3087 8.62106 12.2506 8.77381C12.1924 8.92656 12.1775 9.09445 12.2078 9.2563C12.2381 9.41815 12.3122 9.5667 12.4207 9.68319C12.5293 9.79969 12.6674 9.87892 12.8176 9.91087C12.9679 9.94281 13.1236 9.92605 13.265 9.8627C13.4064 9.79935 13.5273 9.69225 13.6123 9.55491C13.6973 9.41758 13.7427 9.25618 13.7427 9.09107C13.7421 8.86902 13.6598 8.6563 13.5138 8.49963C13.3678 8.34296 13.1702 8.25515 12.9642 8.25547Z" fill="#39D67C"/>
</g>
<defs>
<clipPath id="clip0_206_1210">
<rect width="30" height="30" fill="white"/>
</clipPath>
</defs>
</svg>
